#!OML:ASF H:\BabyWalks\Project 1\Capture day 1\Session 1\baby.ASF
:FULLY-SPECIFIED
:DEGREES
190
root -28.1927 17.3936 -2.0983 -143.673 85.0347 -152.123
lowerback 20.6214 -1.01985 6.61271
upperback 5.46865 0.887687 4.89887
thorax -5.57447 0.595878 1.27816
lowerneck 1.94382 4.21011 9.19862
upperneck -18.7454 4.14082 -19.5538
head -5.12655 3.11023 -8.11677
rclavicle -1.90833e-014 -7.63333e-014
rhumerus -42.7016 7.26941 -79.1382
rradius 52.1411
rwrist -3.70675
rhand -11.8875 -16.6823
rfingers 7.12502
rthumb 14.1654 -46.1794
lclavicle -1.90833e-014 -7.63333e-014
lhumerus -47.7984 -6.71508 83.9572
lradius 55.111
lwrist 6.56626
lhand -3.03547 11.0628
lfingers 7.12502
lthumb 22.6799 39.7501
rfemur -14.3573 14.1517 20.2886
rtibia 34.5884
rfoot -25.1798 1.18115
rtoes -10.3345
lfemur -36.9791 7.35443 -9.44178
ltibia 48.6795
lfoot -21.2457 -18.8059
ltoes -16.7615
191
root -28.094 17.4072 -2.12946 -144.717 84.483 -153.119
lowerback 20.523 -0.961308 6.70848
upperback 5.40727 0.968388 4.83327
thorax -5.58473 0.631415 1.13301
lowerneck 1.94661 4.17425 9.17909
upperneck -18.6612 4.12126 -19.3737
head -5.11253 3.08493 -8.04646
rclavicle 1.90833e-014 1.90833e-014
rhumerus -42.8046 7.09701 -79.059
rradius 51.6975
rwrist -3.45986
rhand -11.847 -16.8109
rfingers 7.12502
rthumb 14.2045 -46.3053
lclavicle 1.90833e-014 1.90833e-014
lhumerus -47.9747 -6.65895 83.8485
lradius 54.6294
lwrist 6.24584
lhand -2.95225 11.1817
lfingers 7.12502
lthumb 22.7598 39.8592
rfemur -13.3601 13.7538 20.5606
rtibia 33.5366
rfoot -24.8572 1.18838
rtoes -10.4796
lfemur -37.1636 6.94221 -9.28154
ltibia 46.8221
lfoot -20.8578 -18.1992
ltoes -16.8419
192
root -27.9922 17.4363 -2.16193 -145.538 83.9272 -153.878
lowerback 20.4325 -0.909772 6.78903
upperback 5.35021 1.03806 4.77159
thorax -5.59462 0.661914 1.00365
lowerneck 1.94467 4.13489 9.12728
upperneck -18.5815 4.09797 -19.1574
head -5.10194 3.0572 -7.95821
rclavicle -2.38542e-015 -6.36111e-014
rhumerus -42.9112 6.93965 -78.9728
rradius 51.2609
rwrist -3.2502
rhand -11.7771 -16.9576
rfingers 7.12502
rthumb 14.2718 -46.4471
lclavicle -2.38542e-015 -6.36111e-014
lhumerus -48.1571 -6.58506 83.7449
lradius 54.1441
lwrist 5.92262
lhand -2.84884 11.3034
lfingers 7.12502
lthumb 22.859 39.9686
rfemur -12.2969 13.3678 20.8417
rtibia 32.3912
rfoot -24.4631 1.18942
rtoes -10.6968
lfemur -37.2198 6.45724 -9.10004
ltibia 44.8985
lfoot -20.4464 -17.5812
ltoes -16.7996
193
root -27.8884 17.467 -2.19591 -146.256 83.3599 -154.52
lowerback 20.363 -0.873936 6.85686
upperback 5.28814 1.08714 4.70873
thorax -5.62135 0.68196 0.885569
lowerneck 1.93668 4.09395 9.04208
upperneck -18.4965 4.07517 -18.8954
head -5.09126 3.02783 -7.84817
rclavicle 1.11319e-014 7.95139e-015
rhumerus -43.0307 6.8067 -78.8946
rradius 50.8331
rwrist -3.08076
rhand -11.676 -17.1275
rfingers 7.12502
rthumb 14.3692 -46.6102
lclavicle 1.11319e-014 7.95139e-015
lhumerus -48.3602 -6.48911 83.6346
lradius 53.6632
lwrist 5.59476
lhand -2.70588 11.4299
lfingers 7.12502
lthumb 22.9962 40.0781
rfemur -11.1844 12.9977 21.1282
rtibia 31.1858
rfoot -24.0115 1.17743
rtoes -10.9446
lfemur -37.209 5.90029 -8.89279
ltibia 42.9749
lfoot -20.0126 -16.9617
ltoes -16.6879
194
root -27.7826 17.4985 -2.23216 -146.741 82.8073 -154.914
lowerback 20.3049 -0.840275 6.90595
upperback 5.23082 1.13092 4.64896
thorax -5.64931 0.699689 0.782755
lowerneck 1.92011 4.05203 8.92773
upperneck -18.4074 4.05322 -18.5939
head -5.0799 2.99726 -7.71934
rclavicle -2.14687e-014 -3.33958e-014
rhumerus -43.1532 6.69829 -78.8149
rradius 50.418
rwrist -2.94817
rhand -11.5384 -17.3105
rfingers 7.12502
rthumb 14.5018 -46.7837
lclavicle -2.14687e-014 -3.33958e-014
lhumerus -48.5686 -6.37049 83.5279
lradius 53.1837
lwrist 5.26487
lhand -2.52956 11.5562
lfingers 7.12502
lthumb 23.1654 40.1833
rfemur -10.0034 12.6541 21.4195
rtibia 29.8552
rfoot -23.4564 1.17138
rtoes -11.2397
lfemur -37.1098 5.29753 -8.65645
ltibia 41.0277
lfoot -19.5406 -16.3284
ltoes -16.4806
195
root -27.6747 17.5297 -2.2699 -147.072 82.2683 -155.14
lowerback 20.2413 -0.803202 6.91336
upperback 5.18565 1.17086 4.60226
thorax -5.66237 0.716758 0.718415
lowerneck 1.89509 4.00672 8.78704
upperneck -18.3178 4.02764 -18.2629
head -5.06913 2.96417 -7.576
rclavicle 8.74653e-015 -3.33958e-014
rhumerus -43.2692 6.62316 -78.7254
rradius 50.015
rwrist -2.84827
rhand -11.3682 -17.4992
rfingers 7.12502
rthumb 14.6658 -46.9606
lclavicle 8.74653e-015 -3.33958e-014
lhumerus -48.7654 -6.2312 83.433
lradius 52.7018
lwrist 4.94028
lhand -2.30928 11.6854
lfingers 7.12502
lthumb 23.3767 40.2857
rfemur -8.79083 12.3404 21.7187
rtibia 28.4857
rfoot -22.8475 1.1492
rtoes -11.6267
lfemur -36.9484 4.64997 -8.39085
ltibia 39.1359
lfoot -19.0853 -15.6663
ltoes -16.2215
196
root -27.5655 17.5598 -2.30978 -147.209 81.7589 -155.168
lowerback 20.1848 -0.757558 6.90407
upperback 5.14063 1.21837 4.55035
thorax -5.67882 0.737312 0.656048
lowerneck 1.86 3.95541 8.64332
upperneck -18.2145 3.99755 -17.8983
head -5.05408 2.92544 -7.42023
rclavicle 1.74931e-014 2.06736e-014
rhumerus -43.3956 6.55579 -78.6478
rradius 49.6154
rwrist -2.73829
rhand -11.1932 -17.6621
rfingers 7.12502
rthumb 14.8344 -47.1111
lclavicle 1.74931e-014 2.06736e-014
lhumerus -48.9612 -6.10292 83.3368
lradius 52.2255
lwrist 4.62141
lhand -2.04055 11.8213
lfingers 7.12502
lthumb 23.6345 40.3886
rfemur -7.57163 12.0568 22.0163
rtibia 27.0975
rfoot -22.1921 1.13412
rtoes -12.0814
lfemur -36.7439 3.97499 -8.10226
ltibia 37.3316
lfoot -18.6667 -14.9495
ltoes -15.872
197
root -27.455 17.5879 -2.35171 -147.17 81.2815 -155.019
lowerback 20.1051 -0.696204 6.851
upperback 5.11073 1.27557 4.51325
thorax -5.66762 0.764153 0.631942
lowerneck 1.81698 3.89794 8.48856
upperneck -18.1107 3.95943 -17.5193
head -5.03916 2.88231 -7.25793
rclavicle -5.56597e-015 -2.22639e-014
rhumerus -43.5056 6.52676 -78.5634
rradius 49.2077
rwrist -2.59704
rhand -11.049 -17.7755
rfingers 7.12502
rthumb 14.9733 -47.2142
lclavicle -5.56597e-015 -2.22639e-014
lhumerus -49.1357 -5.96621 83.2615
lradius 51.7556
lwrist 4.30757
lhand -1.73045 11.9628
lfingers 7.12502
lthumb 23.9319 40.4914
rfemur -6.36143 11.8081 22.3114
rtibia 25.7151
rfoot -21.5042 1.13485
rtoes -12.5744
lfemur -36.5083 3.28735 -7.79726
ltibia 35.6442
lfoot -18.3123 -14.1627
ltoes -15.4453
198
root -27.3434 17.6135 -2.39574 -146.978 80.8464 -154.72
lowerback 20.0288 -0.621266 6.78722
upperback 5.07401 1.34653 4.45984
thorax -5.6649 0.796789 0.593077
lowerneck 1.76919 3.83424 8.35112
upperneck -17.9883 3.91732 -17.1134
head -5.01837 2.83294 -7.08923
rclavicle -1.98785e-014 6.36111e-015
rhumerus -43.636 6.50807 -78.5132
rradius 48.7944
rwrist -2.40267
rhand -10.9418 -17.8315
rfingers 7.12502
rthumb 15.0766 -47.2625
lclavicle -1.98785e-014 6.36111e-015
lhumerus -49.317 -5.86804 83.1791
lradius 51.303
lwrist 4.0163
lhand -1.37656 12.1152
lfingers 7.12502
lthumb 24.2712 40.5988
rfemur -5.17449 11.5973 22.5958
rtibia 24.3592
rfoot -20.7946 1.16099
rtoes -13.1006
lfemur -36.2502 2.61394 -7.48944
ltibia 34.101
lfoot -18.0377 -13.3138
ltoes -15.0366
199
root -27.2308 17.6358 -2.44223 -146.62 80.4645 -154.253
lowerback 19.9604 -0.531316 6.71168
upperback 5.03476 1.43348 4.39103
thorax -5.66829 0.836578 0.540513
lowerneck 1.7232 3.76636 8.23059
upperneck -17.8574 3.87276 -16.6874
head -4.99547 2.7794 -6.91715
rclavicle 9.54166e-015 2.38542e-014
rhumerus -43.7775 6.51346 -78.4966
rradius 48.3821
rwrist -2.18079
rhand -10.8672 -17.8416
rfingers 7.12502
rthumb 15.1484 -47.2671
lclavicle 9.54166e-015 2.38542e-014
lhumerus -49.5114 -5.80675 83.0918
lradius 50.8802
lwrist 3.75062
lhand -0.977245 12.2883
lfingers 7.12502
lthumb 24.654 40.7202
rfemur -4.01101 11.4284 22.8656
rtibia 23.0428
rfoot -20.0751 1.22782
rtoes -13.6322
lfemur -35.9615 1.97232 -7.18696
ltibia 32.7241
lfoot -17.85 -12.4007
ltoes -14.6579
200
root -27.1171 17.6547 -2.49084 -146.145 80.1271 -153.665
lowerback 19.8832 -0.424001 6.61135
upperback 5.00084 1.536 4.31667
thorax -5.6611 0.884289 0.492385
lowerneck 1.68408 3.69377 8.12607
upperneck -17.7331 3.82263 -16.2568
head -4.97574 2.72242 -6.74765
rclavicle 3.61788e-014 3.73715e-014
rhumerus -43.9186 6.54203 -78.5004
rradius 47.973
rwrist -1.92662
rhand -10.8237 -17.8066
rfingers 7.12502
rthumb 15.1904 -47.229
lclavicle 3.61788e-014 3.73715e-014
lhumerus -49.7045 -5.77824 83.0132
lradius 50.4809
lwrist 3.51673
lhand -0.545208 12.4577
lfingers 7.12502
lthumb 25.0681 40.8324
rfemur -2.86672 11.2982 23.1224
rtibia 21.7687
rfoot -19.3518 1.32652
rtoes -14.1968
lfemur -35.6519 1.37945 -6.90608
ltibia 31.5283
lfoot -17.7416 -11.4469
ltoes -14.2248
201
root -27.0022 17.6706 -2.54148 -145.556 79.8282 -152.961
lowerback 19.812 -0.31001 6.50925
upperback 4.96219 1.64572 4.22599
thorax -5.66141 0.934777 0.426215
lowerneck 1.66404 3.62271 8.03811
upperneck -17.6344 3.77568 -15.8162
head -4.96623 2.66687 -6.58036
rclavicle 1.63003e-014 2.06736e-014
rhumerus -44.066 6.59147 -78.5412
rradius 47.5744
rwrist -1.65901
rhand -10.7902 -17.7495
rfingers 7.12502
rthumb 15.2226 -47.1694
lclavicle 1.63003e-014 2.06736e-014
lhumerus -49.9169 -5.78481 82.928
lradius 50.1202
lwrist 3.31956
lhand -0.0803815 12.6296
lfingers 7.12502
lthumb 25.5134 40.9414
rfemur -1.74019 11.209 23.369
rtibia 20.532
rfoot -18.624 1.46098
rtoes -14.7392
lfemur -35.3339 0.853896 -6.65516
ltibia 30.5265
lfoot -17.6919 -10.4768
ltoes -13.7123
202
root -26.8855 17.6842 -2.59381 -144.9 79.5625 -152.179
lowerback 19.735 -0.188331 6.38112
upperback 4.93252 1.75935 4.13423
thorax -5.6495 0.987938 0.372929
lowerneck 1.66425 3.55301 7.96171
upperneck -17.5679 3.72937 -15.3831
head -4.96897 2.61348 -6.42033
rclavicle -1.86858e-014 -4.6118e-014
rhumerus -44.2082 6.674 -78.5981
rradius 47.2051
rwrist -1.39791
rhand -10.7446 -17.6764
rfingers 7.12502
rthumb 15.2665 -47.093
lclavicle -1.86858e-014 -4.6118e-014
lhumerus -50.1381 -5.81031 82.8526
lradius 49.7969
lwrist 3.16145
lhand 0.410481 12.8133
lfingers 7.12502
lthumb 25.9835 41.057
rfemur -0.61668 11.1603 23.6082
rtibia 19.3227
rfoot -17.8899 1.62838
rtoes -15.2394
lfemur -34.9949 0.373985 -6.42866
ltibia 29.7247
lfoot -17.6857 -9.49491
ltoes -12.9691
